<?xml version="1.0" encoding="utf-8"?>
<!-- Generator: Adobe Illustrator 25.2.0, SVG Export Plug-In . SVG Version: 6.00 Build 0)  -->
<svg version="1.1" id="Layer_1" xmlns="http://www.w3.org/2000/svg" xmlns:xlink="http://www.w3.org/1999/xlink" x="0px" y="0px"
	 viewBox="0 0 740.37 525.77" style="enable-background:new 0 0 740.37 525.77;" xml:space="preserve">
<style type="text/css">
	.st0{fill:url(#SVGID_1_);}
	.st1{fill:url(#SVGID_2_);}
	.st2{fill:url(#SVGID_3_);}
</style>
<g>
	<g>
		<g>
			<linearGradient id="SVGID_1_" gradientUnits="userSpaceOnUse" x1="356.6012" y1="433.9312" x2="810.653" y2="433.9312">
				<stop  offset="0" style="stop-color:#00DBFF"/>
				<stop  offset="0.0882" style="stop-color:#0DD3FE"/>
				<stop  offset="0.2501" style="stop-color:#2EBFFC"/>
				<stop  offset="0.4677" style="stop-color:#649DF8"/>
				<stop  offset="0.6898" style="stop-color:#A277F3"/>
				<stop  offset="0.7619" style="stop-color:#956BF5"/>
				<stop  offset="0.8936" style="stop-color:#744AFA"/>
				<stop  offset="1" style="stop-color:#552BFF"/>
			</linearGradient>
			<path class="st0" d="M389.45,416.26h29.37v-31.61l32.85-55.5H423.3l-17.92,30.12l-17.79-30.12H356.6l32.85,55.13V416.26z
				 M684.13,394.36h7.96l14.81,21.9h31.36l-18.29-26.88c5.31-2.74,9.38-6.43,12.2-11.07c2.82-4.64,4.23-10.08,4.23-16.3
				c0-6.63-1.62-12.44-4.85-17.42c-3.24-4.98-7.84-8.79-13.81-11.45c-5.97-2.65-12.98-3.98-21.03-3.98h-41.94v87.11h29.37V394.36z
				 M684.13,351.8h10.7c3.98,0,6.97,0.89,8.96,2.68c1.99,1.79,2.99,4.29,2.99,7.53c0,3.24-1,5.75-2.99,7.53
				c-1.99,1.79-4.98,2.68-8.96,2.68h-10.7V351.8z M598.89,418.25c13.36,0,23.77-3.61,31.23-10.83s11.2-17.34,11.2-30.36v-47.91
				h-28.87v47.04c0,6.39-1.14,11.03-3.42,13.94s-5.58,4.36-9.89,4.36c-4.31,0-7.61-1.45-9.89-4.36c-2.28-2.9-3.42-7.55-3.42-13.94
				v-47.04h-29.37v47.91c0,13.03,3.73,23.15,11.2,30.36C575.12,414.64,585.53,418.25,598.89,418.25z M712.88,440.53
				c-7.47-3.9-15.89-5.85-25.26-5.85s-17.79,1.95-25.26,5.85c-7.47,3.9-13.31,9.31-17.55,16.24c-4.23,6.93-6.35,14.75-6.35,23.46
				s2.12,16.53,6.35,23.46c4.23,6.93,10.08,12.34,17.55,16.24s15.89,5.85,25.26,5.85s17.79-1.95,25.26-5.85s13.32-9.31,17.55-16.24
				c4.23-6.93,6.35-14.75,6.35-23.46s-2.12-16.53-6.35-23.46C726.19,449.84,720.34,444.43,712.88,440.53z M704.54,491.74
				c-1.74,3.28-4.09,5.81-7.03,7.59c-2.95,1.79-6.24,2.68-9.89,2.68c-3.65,0-6.95-0.89-9.89-2.68c-2.95-1.78-5.29-4.31-7.03-7.59
				s-2.61-7.11-2.61-11.51c0-4.4,0.87-8.23,2.61-11.51s4.09-5.81,7.03-7.59c2.94-1.78,6.24-2.68,9.89-2.68
				c3.65,0,6.95,0.89,9.89,2.68c2.95,1.79,5.29,4.31,7.03,7.59s2.61,7.11,2.61,11.51C707.15,484.62,706.28,488.46,704.54,491.74z
				 M540.15,349.25c-4.23-6.93-10.08-12.34-17.55-16.24c-7.47-3.9-15.89-5.85-25.26-5.85s-17.79,1.95-25.26,5.85
				c-7.47,3.9-13.31,9.31-17.55,16.24c-4.23,6.93-6.35,14.75-6.35,23.46s2.12,16.53,6.35,23.46c4.23,6.93,10.08,12.34,17.55,16.24
				s15.89,5.85,25.26,5.85s17.79-1.95,25.26-5.85s13.32-9.31,17.55-16.24c4.23-6.93,6.35-14.75,6.35-23.46
				S544.38,356.17,540.15,349.25z M514.27,384.21c-1.74,3.28-4.09,5.81-7.03,7.59c-2.95,1.79-6.24,2.68-9.89,2.68
				c-3.65,0-6.95-0.89-9.89-2.68c-2.95-1.78-5.29-4.31-7.03-7.59c-1.74-3.28-2.61-7.11-2.61-11.51c0-4.4,0.87-8.23,2.61-11.51
				c1.74-3.28,4.09-5.8,7.03-7.59c2.94-1.78,6.24-2.68,9.89-2.68c3.65,0,6.95,0.89,9.89,2.68c2.95,1.79,5.29,4.31,7.03,7.59
				c1.74,3.28,2.61,7.12,2.61,11.51C516.88,377.1,516.01,380.94,514.27,384.21z M593.54,458.45c7.55,0,14.06,3.2,19.54,9.58
				l18.79-16.55c-4.48-5.47-10.1-9.64-16.86-12.51c-6.76-2.86-14.42-4.29-22.96-4.29c-9.46,0-17.94,1.93-25.45,5.79
				c-7.51,3.86-13.36,9.25-17.55,16.18c-4.19,6.93-6.29,14.79-6.29,23.58c0,8.79,2.1,16.66,6.29,23.58
				c4.19,6.93,9.97,12.32,17.36,16.18c7.38,3.86,15.72,5.79,25.01,5.79c6.55,0,13.23-0.96,20.04-2.86
				c6.8-1.91,12.77-4.64,17.92-8.21v-36.83h-25.51v22.03c-3.4,1.41-6.97,2.12-10.7,2.12c-6.31,0-11.35-1.99-15.12-5.97
				s-5.66-9.25-5.66-15.8c0-6.72,1.91-12.03,5.72-15.93C581.92,460.4,587.07,458.45,593.54,458.45z M511.65,440.53
				c-7.47-3.9-15.89-5.85-25.26-5.85c-9.38,0-17.8,1.95-25.26,5.85c-7.47,3.9-13.32,9.31-17.55,16.24
				c-4.23,6.93-6.35,14.75-6.35,23.46s2.12,16.53,6.35,23.46c4.23,6.93,10.08,12.34,17.55,16.24c7.46,3.9,15.88,5.85,25.26,5.85
				c9.37,0,17.79-1.95,25.26-5.85c7.46-3.9,13.31-9.31,17.54-16.24c4.23-6.93,6.35-14.75,6.35-23.46s-2.12-16.53-6.35-23.46
				C524.97,449.84,519.12,444.43,511.65,440.53z M503.32,491.74c-1.74,3.28-4.09,5.81-7.03,7.59c-2.95,1.79-6.24,2.68-9.89,2.68
				c-3.65,0-6.95-0.89-9.89-2.68c-2.95-1.78-5.29-4.31-7.03-7.59s-2.61-7.11-2.61-11.51c0-4.4,0.87-8.23,2.61-11.51
				s4.09-5.81,7.03-7.59c2.95-1.78,6.24-2.68,9.89-2.68c3.65,0,6.95,0.89,9.89,2.68c2.94,1.79,5.29,4.31,7.03,7.59
				s2.61,7.11,2.61,11.51C505.93,484.62,505.06,488.46,503.32,491.74z M394.56,436.67h-29.37v87.11h68.69v-22.77h-39.32V436.67z"/>
		</g>
	</g>
	<linearGradient id="SVGID_2_" gradientUnits="userSpaceOnUse" x1="251.6996" y1="-36.8115" x2="509.1364" y2="409.0821">
		<stop  offset="0" style="stop-color:#00DBFF"/>
		<stop  offset="0.0882" style="stop-color:#0DD3FE"/>
		<stop  offset="0.2501" style="stop-color:#2EBFFC"/>
		<stop  offset="0.4677" style="stop-color:#649DF8"/>
		<stop  offset="0.6898" style="stop-color:#A277F3"/>
		<stop  offset="0.7619" style="stop-color:#956BF5"/>
		<stop  offset="0.8936" style="stop-color:#744AFA"/>
		<stop  offset="1" style="stop-color:#552BFF"/>
	</linearGradient>
	<path class="st1" d="M259.21,62.67h-5.23v22.65h5.23V62.67z M403.66,168.71l2.61,4.53l19.62-11.32l-2.61-4.53L403.66,168.71z
		 M253.99,450.59h5.23v-22.65h-5.23V450.59z M339.99,106.97l4.53,2.61l11.32-19.62l-4.53-2.61L339.99,106.97z M676.5,31.37h48.18
		c8.66,0,15.68-7.02,15.68-15.68c0-8.66-7.02-15.68-15.68-15.68H676.5c-8.66,0-15.68,7.02-15.68,15.68
		C660.82,24.35,667.84,31.37,676.5,31.37z M561.14,78.41c0,8.66,7.02,15.68,15.68,15.68h48.18c8.66,0,15.68-7.02,15.68-15.68
		c0-8.66-7.02-15.68-15.68-15.68h-48.18C568.16,62.73,561.14,69.75,561.14,78.41z M89.93,157.39l-2.61,4.53l19.62,11.32l2.61-4.53
		L89.93,157.39z M85.29,259.24v-5.23H62.64v5.23H85.29z M724.7,250.85H528.88c-8.67,0-15.68-7-15.68-15.68s7-15.68,15.68-15.68
		h29.74c8.62,0,15.68-7,15.68-15.68c0-8.62-7.05-15.68-15.68-15.68H519c-8.68,0-15.68-7-15.68-15.68c0-8.68,7-15.68,15.68-15.68
		h158.56c8.62,0,15.68-7,15.68-15.68c0-8.62-7.05-15.68-15.68-15.68H487.64c-8.68,0-15.68-7-15.68-15.68c0-8.62,7-15.68,15.68-15.68
		h17.45c8.68,0,15.68-7,15.68-15.68c0-8.62-7-15.68-15.68-15.68h-70.45c-8.62,0-15.68-7-15.68-15.68c0-8.62,7.05-15.68,15.68-15.68
		h170.16c8.62,0,15.68-7,15.68-15.68c0-8.62-7.06-15.68-15.68-15.68H256.6C115.08,0,0,115.13,0,256.65
		c0,141.47,115.08,256.6,256.6,256.6c19.7,0,39.35-2.25,58.43-6.69c8.41-1.93,13.64-10.4,11.71-18.81
		c-1.99-8.47-10.4-13.69-18.81-11.71c-16.72,3.87-33.97,5.85-51.32,5.85c-124.22,0-225.24-101.07-225.24-225.24
		c0-124.22,101.02-225.29,225.24-225.29c41.76,0,80.9,11.45,114.45,31.36c14.95,8.83,28.8,19.39,41.29,31.36
		c10.19,9.77,19.49,20.54,27.75,32.09c6.9,9.67,13.07,19.91,18.34,30.62c14.69,29.53,23.1,62.66,23.41,97.73v2.14
		c0,7-0.31,14.06-0.94,21.01c-0.16,1.78-0.37,3.55-0.57,5.33c-0.99,8.62,5.17,16.41,13.74,17.4c8.62,1.05,16.41-5.12,17.4-13.74
		c0.16-1.46,0.31-2.98,0.42-4.44h212.8c8.62,0,15.68-7,15.68-15.68C740.37,257.91,733.32,250.85,724.7,250.85z M616.58,188.15
		c-8.66,0-15.68,7.02-15.68,15.68c0,8.66,7.02,15.68,15.68,15.68h24.09c8.66,0,15.68-7.02,15.68-15.68
		c0-8.66-7.02-15.68-15.68-15.68H616.58z M87.32,351.35l2.61,4.53l19.62-11.32l-2.61-4.53L87.32,351.35z M161.88,87.35l-4.53,2.61
		l11.32,19.62l4.53-2.61L161.88,87.35z M157.36,423.3l4.53,2.61l11.32-19.62l-4.53-2.61L157.36,423.3z M256.6,42.5
		c-118.07,0-214.13,96.06-214.13,214.13c0,118.07,96.06,214.13,214.13,214.13c20.42,0,40.61-2.87,60.02-8.53
		c1.39-0.4,2.18-1.85,1.78-3.24c-0.4-1.39-1.85-2.18-3.24-1.78c-18.93,5.52-38.63,8.32-58.55,8.32
		c-115.19,0-208.91-93.71-208.91-208.91S141.41,47.72,256.6,47.72s208.91,93.72,208.91,208.91c0,10.7-0.82,21.45-2.43,31.97
		c-0.22,1.43,0.76,2.76,2.19,2.98c1.42,0.22,2.76-0.76,2.98-2.19c1.65-10.77,2.49-21.79,2.49-32.76
		C470.74,138.56,374.67,42.5,256.6,42.5z"/>
	<linearGradient id="SVGID_3_" gradientUnits="userSpaceOnUse" x1="173.8925" y1="200.6565" x2="351.2885" y2="200.6565">
		<stop  offset="0" style="stop-color:#FACF5C"/>
		<stop  offset="1" style="stop-color:#FF7257"/>
	</linearGradient>
	<path class="st2" d="M343.4,199.19l-69.18,40.94c-4.42-4.71-10.65-7.7-17.62-7.7c-2.63,0-5.11,0.52-7.48,1.3l-65.5-110.68
		c-1.47-2.48-4.67-3.3-7.16-1.83c-2.48,1.47-3.31,4.67-1.83,7.16l65.48,110.64c-4.71,4.42-7.7,10.65-7.7,17.62
		c0,13.37,10.84,24.2,24.2,24.2c13.37,0,24.2-10.84,24.2-24.2c0-2.63-0.52-5.11-1.3-7.48l69.22-40.97c2.48-1.47,3.31-4.68,1.83-7.16
		C349.09,198.54,345.89,197.72,343.4,199.19z"/>
</g>
</svg>
